<?xml version="1.0" encoding="UTF-8" standalone="no"?>
<!-- Created with Inkscape (http://www.inkscape.org/) -->

<svg
   width="88.782188mm"
   height="36.383381mm"
   viewBox="0 0 88.782188 36.383381"
   version="1.1"
   id="svg1"
   inkscape:version="1.4 (e7c3feb100, 2024-10-09)"
   sodipodi:docname="logoquedafont.svg"
   xmlns:inkscape="http://www.inkscape.org/namespaces/inkscape"
   xmlns:sodipodi="http://sodipodi.sourceforge.net/DTD/sodipodi-0.dtd"
   xmlns="http://www.w3.org/2000/svg"
   xmlns:svg="http://www.w3.org/2000/svg">
  <sodipodi:namedview
     id="namedview1"
     pagecolor="#ffffff"
     bordercolor="#000000"
     borderopacity="0.25"
     inkscape:showpageshadow="2"
     inkscape:pageopacity="0.0"
     inkscape:pagecheckerboard="0"
     inkscape:deskcolor="#d1d1d1"
     inkscape:document-units="mm"
     inkscape:zoom="0.68506594"
     inkscape:cx="459.80975"
     inkscape:cy="63.497537"
     inkscape:window-width="2560"
     inkscape:window-height="1020"
     inkscape:window-x="0"
     inkscape:window-y="0"
     inkscape:window-maximized="1"
     inkscape:current-layer="text1" />
  <defs
     id="defs1" />
  <g
     inkscape:label="Capa 1"
     inkscape:groupmode="layer"
     id="layer1"
     transform="translate(16.496915,-85.213445)">
    <g
       id="text1"
       style="font-weight:bold;font-size:50.8px;font-family:'Nimbus Roman';-inkscape-font-specification:'Nimbus Roman,  Bold';text-align:center;text-anchor:middle;stroke:#000000;stroke-width:0.264583"
       aria-label="E&amp;S">
      <path
         d="m -16.364623,87.428537 c 3.4036,0.1524 4.3688,0.9652 4.4704,3.6068 v 24.587203 c -0.1016,2.6924 -0.8128,3.302 -4.4704,3.6068 v 1.27 h 29.718 l 2.031999,-10.5664 h -1.422399 c -1.5748,3.4036 -2.5908,4.826 -4.4196004,6.2992 -2.3368,1.8796 -5.0799999,2.6924 -8.99159989,2.6924 -3.30199991,0 -4.21639991,-0.6604 -4.21639991,-2.8448 v -12.2936 c 5.5371999,0 7.6199999,1.9812 8.2295999,7.874 H 5.8857766 V 94.489737 H 4.5649767 c -0.762,5.791203 -2.7432,7.620003 -8.2295999,7.569203 V 90.273337 c 0,-1.9304 0.6604,-2.3876 3.30199993,-2.3876 8.28039987,0 10.76960027,1.7272 12.03960027,8.4836 h 1.27 v -10.2108 h -29.3116 z"
         id="path1" />
      <path
         style="font-size:35.2778px"
         d="m 37.061459,105.71794 v 0.84666 c 2.08139,0.24695 2.328335,0.42334 2.328335,1.44639 0,1.41112 -0.635,2.61056 -2.681113,5.11529 l -5.326948,-7.54945 c 3.739447,-1.37584 5.362226,-2.92806 5.362226,-5.18584 0,-2.57528 -2.328335,-4.268615 -5.891393,-4.268615 -4.233336,0 -6.879171,2.151946 -6.879171,5.609175 0,1.55222 0.388056,2.64583 1.834445,5.08 -5.009447,2.46945 -6.914449,4.69195 -6.914449,8.00806 0,3.66889 2.786947,6.20889 6.73806,6.20889 2.645836,0 4.938893,-0.88194 7.831672,-3.06917 2.081391,2.32834 3.386669,3.10445 5.256393,3.10445 1.093612,0 2.39889,-0.45861 3.280835,-1.09361 0.564445,-0.45861 1.023057,-1.02306 1.905002,-2.46945 l 0.564444,-0.91722 -0.705556,-0.42333 c -0.599722,0.9525 -1.164167,1.34055 -2.046112,1.34055 -1.340557,0 -2.222502,-0.67028 -4.198058,-3.21028 1.940279,-2.68111 2.328334,-3.24555 3.280835,-4.7625 l 0.952501,-1.55222 c 0.635,-1.02306 1.058334,-1.27 2.575279,-1.41112 v -0.84666 z m -8.960561,4.69195 c 2.681112,4.02166 3.421946,5.08 4.550836,6.56167 -1.375834,0.98777 -2.257779,1.37583 -3.175002,1.37583 -1.058334,0 -2.257779,-0.56444 -3.139725,-1.48167 -1.516945,-1.55222 -2.540001,-3.84528 -2.540001,-5.67972 0,-1.34056 0.670278,-2.18723 2.610557,-3.31612 z m 2.610557,-5.85612 c -1.869724,-2.32833 -2.610557,-3.84528 -2.610557,-5.29167 0,-1.234723 0.670278,-1.975557 1.834445,-1.975557 1.728613,0 3.245558,2.046112 3.245558,4.409727 0,1.44639 -0.705556,2.25778 -2.469446,2.8575 z"
         id="path2" />
      <path
         d="m 70.679781,96.369337 v -11.0236 h -1.524 c -0.4064,1.3716 -0.7112,1.7272 -1.6256,1.7272 -0.4572,0 -1.0668,-0.1524 -2.1336,-0.508 -2.3368,-0.8636 -3.9624,-1.1684 -5.9436,-1.1684 -6.9088,0 -11.1252,3.9116 -11.1252,10.3632 0,4.419603 2.6416,7.620003 8.6868,10.515603 l 3.4036,1.6256 c 4.4704,2.1336 5.6896,3.4544 5.6896,6.1468 0,3.5052 -2.4892,5.7404 -6.4008,5.7404 -2.9972,0 -5.4864,-1.27 -7.4168,-3.7592 -1.3716,-1.8796 -2.0828,-3.556 -2.9464,-7.112 h -1.4732 v 12.5476 h 1.4732 c 0.3048,-1.3208 0.7112,-1.7272 1.524,-1.7272 0.4064,0 0.9652,0.1524 2.0828,0.508 2.4892,0.8636 4.3688,1.2192 6.604,1.2192 7.5184,0 12.5984,-4.318 12.5984,-10.7188 0,-3.81 -2.286,-7.62 -5.588,-9.2456 l -7.4676,-3.708403 c -4.1148,-2.032 -5.2324,-3.302 -5.2324,-5.7404 0,-3.1496 2.1336,-5.08 5.588,-5.08 2.286,0 4.4196,0.9652 6.2484,2.8448 1.7272,1.778 2.54,3.2512 3.556,6.5532 z"
         id="path3" />
    </g>
  </g>
</svg>
